<svg width="355" height="40" xmlns="http://www.w3.org/2000/svg"><defs><linearGradient x1="-17.212%" y1="48.949%" x2="97.961%" y2="50.609%" id="a"><stop stop-color="#00F0E0" offset="0%"/><stop stop-color="#5392FF" offset="100%"/></linearGradient></defs><path d="M187.58 112h-8.216l-2.6-8.632h-12.116l-2.6 8.632h-8.008L166 75.704h9.776L187.58 112zm-12.74-15.34l-4.056-13.78h-.26l-4.004 13.78h8.32zM200.528 112h-7.904V75.704h17.16c6.76 0 11.024 4.732 11.024 11.596s-4.264 11.596-11.024 11.596h-9.256V112zm0-29.432v9.464h8.32c2.34 0 3.796-1.248 3.796-3.588v-2.288c0-2.34-1.456-3.588-3.796-3.588h-8.32zM242.596 112h-17.264v-6.292h4.68V81.996h-4.68v-6.292h17.264v6.292h-4.68v23.712h4.68V112zm30.628.624c-6.344 0-10.66-2.444-13.78-5.876l5.2-5.252c2.444 2.756 5.564 4.16 9.1 4.16 3.848 0 5.72-1.716 5.72-4.368 0-1.976-.832-3.432-4.212-3.9l-3.588-.468c-7.644-.988-11.128-4.732-11.128-10.816 0-6.5 5.096-11.024 13.624-11.024 5.46 0 9.62 1.82 12.584 5.096l-5.252 5.304c-1.716-2.028-4.056-3.432-7.8-3.432-3.536 0-5.252 1.352-5.252 3.536 0 2.496 1.3 3.432 4.316 3.9l3.588.572c7.436 1.196 11.024 4.524 11.024 10.764 0 6.968-5.096 11.804-14.144 11.804zm34.164-.624h-4.576c-5.304 0-8.112-2.756-8.112-7.956V90.68h-3.848V84.7h1.924c2.08 0 2.704-1.04 2.704-2.912v-4.472h6.916V84.7h5.408v5.98h-5.408v15.34h4.992V112zm30.212 0h-4.264c-2.756 0-4.732-1.872-5.2-4.784h-.312c-.832 3.536-3.848 5.408-8.008 5.408-5.46 0-8.476-3.224-8.476-7.956 0-5.772 4.472-8.528 11.7-8.528h4.316v-1.716c0-2.652-1.3-4.316-4.524-4.316-3.068 0-4.68 1.56-5.876 3.224l-4.576-4.056c2.184-3.224 5.304-5.2 11.024-5.2 7.696 0 11.648 3.536 11.648 9.984v11.96h2.548V112zm-14.924-4.732c2.548 0 4.68-1.04 4.68-3.536v-3.224h-3.744c-2.964 0-4.524 1.092-4.524 3.068v.78c0 1.976 1.3 2.912 3.588 2.912zM350.444 112h-7.696V84.7h7.696v4.628h.312c.988-2.86 3.276-5.252 7.592-5.252 5.564 0 8.528 3.952 8.528 10.816V112h-7.696V95.516c0-3.484-.988-5.2-3.796-5.2-2.496 0-4.94 1.3-4.94 4.004V112zm40.04 0v-4.576h-.26c-.78 2.964-3.796 5.2-7.332 5.2-6.916 0-10.504-5.044-10.504-14.3s3.588-14.248 10.504-14.248c3.536 0 6.552 2.184 7.332 5.2h.26V73.52h7.696V112h-7.696zm-5.044-5.616c2.912 0 5.044-1.508 5.044-4.004v-8.06c0-2.496-2.132-4.004-5.044-4.004-2.912 0-5.044 2.236-5.044 5.668v4.732c0 3.432 2.132 5.668 5.044 5.668zM429.796 112h-4.264c-2.756 0-4.732-1.872-5.2-4.784h-.312c-.832 3.536-3.848 5.408-8.008 5.408-5.46 0-8.476-3.224-8.476-7.956 0-5.772 4.472-8.528 11.7-8.528h4.316v-1.716c0-2.652-1.3-4.316-4.524-4.316-3.068 0-4.68 1.56-5.876 3.224l-4.576-4.056c2.184-3.224 5.304-5.2 11.024-5.2 7.696 0 11.648 3.536 11.648 9.984v11.96h2.548V112zm-14.924-4.732c2.548 0 4.68-1.04 4.68-3.536v-3.224h-3.744c-2.964 0-4.524 1.092-4.524 3.068v.78c0 1.976 1.3 2.912 3.588 2.912zM442.64 112h-7.696V84.7h7.696v5.928h.26c.624-3.016 2.704-5.928 6.968-5.928h1.352v7.176h-1.924c-4.472 0-6.656.988-6.656 4.16V112zm29.848 0v-4.576h-.26c-.78 2.964-3.796 5.2-7.332 5.2-6.916 0-10.504-5.044-10.504-14.3s3.588-14.248 10.504-14.248c3.536 0 6.552 2.184 7.332 5.2h.26V73.52h7.696V112h-7.696zm-5.044-5.616c2.912 0 5.044-1.508 5.044-4.004v-8.06c0-2.496-2.132-4.004-5.044-4.004-2.912 0-5.044 2.236-5.044 5.668v4.732c0 3.432 2.132 5.668 5.044 5.668zm29.172 6.24c-5.252 0-8.684-1.768-11.492-4.888l4.524-4.576c1.924 2.132 4.264 3.484 7.228 3.484 3.016 0 4.056-.988 4.056-2.6 0-1.352-.832-2.028-2.756-2.288l-2.964-.364c-6.188-.78-9.204-3.484-9.204-8.424 0-5.252 4.108-8.892 10.608-8.892 5.72 0 8.372 1.56 11.128 4.264l-4.42 4.524c-1.716-1.716-4.004-2.808-6.292-2.808-2.6 0-3.64.936-3.64 2.288 0 1.456.624 2.236 2.86 2.548l3.068.416c5.928.78 8.996 3.484 8.996 8.216 0 5.252-4.68 9.1-11.7 9.1z" transform="translate(-154 -73)" fill="url(#a)"/></svg>