<svg width="995" height="623" xmlns="http://www.w3.org/2000/svg"><g fill="none" fill-rule="evenodd"><path fill="#FFF" d="M0-159h1650v1563H0z"/><g stroke="#FFF" stroke-linecap="square" stroke-width="2.025"><path fill="#E1E8F5" d="M569.037 109.746l52.706-30.393v65.455L569.037 175.2z"/><path fill="#F2F5FA" d="M569.03 109.746l-52.706-30.393v65.455L569.03 175.2z"/><path fill="#F5F9FF" d="M621.743 79.353L569.037 49l-52.713 30.353 52.713 30.393z"/></g><path d="M539.934 126.498l-62.869 36.38" stroke="#00DDBD" stroke-width="8.1" stroke-linecap="round"/><g stroke="#FFF" stroke-linecap="square" stroke-width="2.025"><path fill="#E1E8F5" d="M463.562 170.528l52.706-30.393v65.455l-52.706 30.393z"/><path fill="#F2F5FA" d="M463.555 170.528l-52.706-30.393v65.455l52.706 30.393z"/><path fill="#F5F9FF" d="M516.268 140.135l-52.706-30.353-52.713 30.353 52.713 30.393z"/></g><path d="M434.156 187.706l-61.884 35.81" stroke="#FC835C" stroke-width="8.1" stroke-linecap="round"/><g stroke="#FFF" stroke-linecap="square" stroke-width="2.025"><path fill="#E1E8F5" d="M358.187 231.33l52.706-30.393v65.454l-52.706 30.393z"/><path fill="#F2F5FA" d="M358.18 231.33l-52.705-30.393v65.454l52.706 30.393z"/><path fill="#F5F9FF" d="M410.893 200.937l-52.706-30.354-52.712 30.354 52.712 30.392z"/></g><path d="M329.339 248.358l-75.613 43.753" stroke="#76A8FF" stroke-width="8.1" stroke-linecap="round"/><g stroke="#FFF" stroke-linecap="square" stroke-width="2.025"><path fill="#E1E8F5" d="M252.712 292.111l52.706-30.393v65.455l-52.706 30.393z"/><path fill="#F2F5FA" d="M252.706 292.111L200 261.718v65.455l52.706 30.393z"/><path fill="#F5F9FF" d="M305.418 261.718l-52.706-30.353L200 261.718l52.712 30.393z"/></g><path d="M599.533 128.164l91.05 53.768" stroke="#76A8FF" stroke-width="8.1" stroke-linecap="round"/><g stroke="#FFF" stroke-linecap="square" stroke-width="2.025"><path fill="#E1E8F5" d="M674.461 170.487l52.706-30.393v65.454l-52.706 30.394z"/><path fill="#F2F5FA" d="M674.455 170.487l-52.706-30.393v65.454l52.706 30.394z"/><path fill="#F5F9FF" d="M727.167 140.094l-52.706-30.353-52.712 30.353 52.712 30.393z"/></g><path d="M645.359 187.24l-62.87 36.378m-88.381-36.738l91.05 53.768m-196.475 8.998l91.051 53.768" stroke="#76A8FF" stroke-width="8.1" stroke-linecap="round"/><g stroke="#FFF" stroke-linecap="square" stroke-width="2.025"><path fill="#E1E8F5" d="M568.986 231.268l52.706-30.392v65.454l-52.706 30.393z"/><path fill="#F2F5FA" d="M568.98 231.268l-52.706-30.392v65.454l52.706 30.393z"/><path fill="#F5F9FF" d="M621.692 200.876l-52.706-30.353-52.712 30.353 52.712 30.392z"/></g><path d="M539.58 248.447l-61.884 35.809" stroke="#76A8FF" stroke-width="8.1" stroke-linecap="round"/><g stroke="#FFF" stroke-linecap="square" stroke-width="2.025"><path fill="#E1E8F5" d="M463.612 292.07l52.706-30.393v65.455l-52.706 30.393z"/><path fill="#F2F5FA" d="M463.606 292.07L410.9 261.677v65.455l52.706 30.393z"/><path fill="#F5F9FF" d="M516.318 261.677l-52.706-30.353-52.712 30.353 52.712 30.393z"/></g><path d="M434.764 309.099l-75.613 43.753" stroke="#00DDBD" stroke-width="8.1" stroke-linecap="round"/><path d="M703.908 189.8l88.497 52.26m-509.146 66.302l91.05 53.768" stroke="#FC835C" stroke-width="8.1" stroke-linecap="round"/><g stroke="#FFF" stroke-linecap="square" stroke-width="2.025"><path fill="#E1E8F5" d="M358.137 352.852l52.706-30.393v65.455l-52.706 30.393z"/><path fill="#F2F5FA" d="M358.13 352.852l-52.705-30.393v65.455l52.706 30.393z"/><path fill="#F5F9FF" d="M410.843 322.46l-52.706-30.354-52.712 30.353 52.712 30.393z"/></g><g stroke="#FFF" stroke-linecap="square" stroke-width="2.025"><path fill="#E1E8F5" d="M779.886 230.984l52.706-30.393v65.455l-52.706 30.393z"/><path fill="#F2F5FA" d="M779.88 230.984l-52.706-30.393v65.455l52.705 30.393z"/><path fill="#F5F9FF" d="M832.592 200.591l-52.706-30.353-52.712 30.353 52.712 30.393z"/></g><path d="M598.483 248.517l88.497 52.26" stroke="#00DDBD" stroke-width="8.1" stroke-linecap="round"/><path d="M750.783 247.736l-62.869 36.38m-194.856 27.166l88.498 52.26" stroke="#FC835C" stroke-width="8.1" stroke-linecap="round"/><g stroke="#FFF" stroke-linecap="square" stroke-width="2.025"><path fill="#E1E8F5" d="M674.411 291.766l52.706-30.393v65.454l-52.706 30.394z"/><path fill="#F2F5FA" d="M674.405 291.766l-52.706-30.393v65.454l52.706 30.394z"/><path fill="#F5F9FF" d="M727.117 261.373L674.41 231.02l-52.712 30.353 52.712 30.393z"/></g><path d="M645.005 308.944l-61.884 35.81" stroke="#76A8FF" stroke-width="8.1" stroke-linecap="round"/><g stroke="#FFF" stroke-linecap="square" stroke-width="2.025"><path fill="#E1E8F5" d="M569.037 352.567l52.706-30.393v65.455l-52.706 30.393z"/><path fill="#F2F5FA" d="M569.03 352.567l-52.706-30.393v65.455l52.706 30.393z"/><path fill="#F5F9FF" d="M621.743 322.174l-52.706-30.353-52.713 30.353 52.713 30.393z"/></g><path d="M387.634 369.998l88.497 52.26" stroke="#76A8FF" stroke-width="8.1" stroke-linecap="round"/><path d="M540.188 369.596l-75.613 43.753" stroke="#FC835C" stroke-width="8.1" stroke-linecap="round"/><g stroke="#FFF" stroke-linecap="square" stroke-width="2.025"><path fill="#E1E8F5" d="M463.562 413.349l52.706-30.393v65.455l-52.706 30.393z"/><path fill="#F2F5FA" d="M463.555 413.349l-52.706-30.393v65.455l52.706 30.393z"/><path fill="#F5F9FF" d="M516.268 382.956l-52.706-30.353-52.713 30.353 52.713 30.393z"/></g><path d="M703.83 310.727l47.36 27.968m58.065-86.685l47.36 27.969" stroke="#00DDBD" stroke-width="8.1" stroke-linecap="round"/><g stroke="#FFF" stroke-linecap="square" stroke-width="2.025"><path fill="#E1E8F5" d="M885.31 291.724l52.706-30.392v65.454L885.31 357.18z"/><path fill="#F2F5FA" d="M885.304 291.724l-52.706-30.392v65.454l52.706 30.394z"/><path fill="#F5F9FF" d="M938.016 261.332l-52.706-30.353-52.712 30.353 52.712 30.392z"/></g><path d="M856.208 308.477l-62.869 36.379" stroke="#FC835C" stroke-width="8.1" stroke-linecap="round"/><g stroke="#FFF" stroke-linecap="square" stroke-width="2.025"><path fill="#E1E8F5" d="M779.836 352.506l52.706-30.392v65.454l-52.706 30.393z"/><path fill="#F2F5FA" d="M779.83 352.506l-52.707-30.392v65.454l52.706 30.393z"/><path fill="#F5F9FF" d="M832.542 322.114l-52.706-30.354-52.713 30.354 52.713 30.392z"/></g><path d="M598.405 373.492l47.361 27.968" stroke="#76A8FF" stroke-width="8.1" stroke-linecap="round"/><path d="M750.43 369.685l-61.884 35.809" stroke="#00DDBD" stroke-width="8.1" stroke-linecap="round"/><g stroke="#FFF" stroke-linecap="square" stroke-width="2.025"><path fill="#E1E8F5" d="M674.461 413.308l52.706-30.393v65.455l-52.706 30.393z"/><path fill="#F2F5FA" d="M674.455 413.308l-52.706-30.393v65.455l52.706 30.393z"/><path fill="#F5F9FF" d="M727.167 382.915l-52.706-30.353-52.712 30.353 52.712 30.393z"/></g><path d="M492.98 432.208l47.361 27.968" stroke="#00DDBD" stroke-width="8.1" stroke-linecap="round"/><path d="M645.613 430.337L570 474.09" stroke="#76A8FF" stroke-width="8.1" stroke-linecap="round"/><g stroke="#FFF" stroke-linecap="square" stroke-width="2.025"><path fill="#E1E8F5" d="M568.986 474.09l52.706-30.393v65.455l-52.706 30.393z"/><path fill="#F2F5FA" d="M568.98 474.09l-52.706-30.393v65.455l52.706 30.393z"/><path fill="#F5F9FF" d="M621.692 443.697l-52.706-30.353-52.712 30.353 52.712 30.393z"/></g><path d="M122.501 334.252l-4.677-2.573.95-5.448c4.41-2.897 6.702-5.788 6.878-8.675.176-2.888-1.434-7.387-4.83-13.498l-15.73 2.977.62 16.556 3.83 2.977-3.286 5.11c.367 3.003 1.462 4.649 3.286 4.938 1.824.289 6.144-.5 12.96-2.364z" fill="#B4B4B4"/><path d="M115.024 371.342c-2.226 25.142-3.75 43.226-4.575 54.251-.825 11.026-5.03 26.487-12.615 46.381h-5.455c3.017-24.242 4.735-37.6 5.153-40.077.627-3.714-.541-28.959-1.49-31.015-.949-2.056-1.85-9.069-1.59-15.929.172-4.573 2.38-9.422 6.626-14.547l13.946.936z" fill="#01D6B7"/><path d="M99.136 469.904c-1.644.923-2.958 1.384-3.942 1.384-1.476 0-3.083-1.839-3.083-.646 0 1.192-2.626 10.689.268 12.43 2.894 1.74 7.298-5.26 10.206-6.373 2.909-1.111 3.186-4.814 2.62-6.057-.377-.829-1.966-.829-4.766 0l-1.303-.738z" fill="#356ED0"/><path d="M93.838 333.061c-6.716 15.828-9.001 24.417-6.855 25.768 2.147 1.351 9.088 1.351 20.824 0-4.713-3.841-8.716-5.914-12.011-6.218-1.735-.16 7.536-12.86 7.165-15.995-.227-1.924-3.268-3.108-9.123-3.555z" fill="#B4B4B4"/><path d="M125.665 373.077c3.799 6.603 5.286 15.418 4.461 26.444-.825 11.026-6.96 39.225-18.408 84.599-1.417.725-2.479 1.048-3.185.97-.707-.08-1.579-.618-2.616-1.617 4.311-30.316 6.676-46.713 7.094-49.189.627-3.714-2.52-29.58-3.469-31.637-.949-2.057-4.71-9.099-4.45-15.959.173-4.573 1.972-9.11 5.399-13.611h15.174z" fill="#00DDBD"/><path d="M125.429 334.668c3.17 1.872 5.394 3.63 6.672 5.275 1.278 1.645 2.004 4.601 2.176 8.87-2.402 2.45-4.407 3.716-6.015 3.798-.227.012-1.092.012-2.597 0l4.682 35.387c-4.83.576-10.648.576-17.455 0-6.808-.576-12.764-3.304-17.868-8.184 3.297-13.406 4.633-22.014 4.008-25.823-.625-3.808-1.96-9.003-4.008-15.584l-2.645-1.791c0-4.788 1.28-7.787 3.839-8.997 2.56-1.21 6.509-1.21 11.848 0-.338 2.387.88 4.201 3.652 5.442 2.302 1.03 6.262.58 9.922.47.5-.015 1.763.364 3.789 1.137z" fill="#356ED0"/><path d="M119.13 296.379c3.814 2.505 4.766 6.509 3.868 10.656-.898 4.147-6.235 4.341-7.79 6.826-1.954 3.12-2.61 10.528-4.009 11.6-3.77 2.886-7.796.363-9.214-1.076-1.417-1.44-2.28-1.076-3.164-2.934-.884-1.857.38-2.482 0-2.735-2.906-1.938-8.96-3.209-7.501-11.57 1.1-6.303 5.285-8.732 12.558-7.288 1.223-.918 2.157-1.472 2.802-1.661.645-.19 1.599-.19 2.862 0 3.849-2.883 7.044-3.489 9.588-1.818z" fill="#2C5DB2"/><path d="M133.911 348.562c-.052 12.873.237 20.466.867 22.78.945 3.47 8.429 18.022 7.925 20.337-.503 2.314-1.795 11.041-5.11 10.967-3.316-.073-.887-8.777-1.87-11.706-.983-2.929-7.866-16.292-8.78-18.925-.61-1.755-1.219-9.573-1.825-23.453h8.793z" fill="#B4B4B4"/><path d="M111.718 483.473c-.986.431-1.972.647-2.956.647-1.476 0-3.084-1.84-3.084-.647s-1.489 11.624.654 12.803c2.142 1.179 13.757-2.28 16.666-3.39 2.908-1.112 1.117-4.204.314-4.96-.536-.504-3.298-.952-8.288-1.344l-3.306-3.109z" fill="#356ED0"/><path d="M183 377.227c-1.784-2.784-2.868-6.454-2.868-10.477 0-8.698 5.069-15.75 11.32-15.75 5.337 0 9.81 5.136 11.007 12.049a1.04 1.04 0 0 1 .315-.049c.833 0 1.509 1.007 1.509 2.25s-.676 2.25-1.51 2.25h-.012c-.25 7.412-4.182 13.484-9.309 14.755l.265 3.245h-12.075l.9-8.29.458.017z" fill="#B4B4B4"/><path d="M187.68 478.5l3.88 77.76c1.978.895 3.421 1.307 4.328 1.236.906-.07 2.15-.69 3.733-1.857l2.184-65.883-14.126-11.256zm-18.114 1.5l2.435 62.528h8.149l2.393-54.327z" fill="#00DDBD"/><path fill="#B4B4B4" d="M164.233 456.82l.83 6.26 3.745 2.491v-8.75z"/><path fill="#868686" d="M160.322 461.468l19.81-11.713v20.374l-19.81 11.803z"/><path d="M167.813 387c-3.302 11.928-5.185 22.362-5.651 31.302-.466 8.941.206 21.763 2.016 38.466H171l3.635-65.495-6.822-4.273z" fill="#2C5DB2"/><path d="M167.527 386.483c-1.307 3.293-1.307 35.698 0 97.215 5.981 5.759 11.496 9.028 16.547 9.81 5.05.78 12.706-.454 22.965-3.702-.102-27.712-.592-47.955-1.47-60.728-1.317-19.161 1.364-33.564 0-36.19-.909-1.752-4.46-4.762-10.654-9.031-2.946.646-5.49.646-7.632 0-3.213-.97-6.044-4.357-8.555-4.357-2.51 0-9.24 2.044-11.2 6.983z" fill="#356ED0"/><path d="M219.736 433.962c-.478 2.159-.478 3.527 0 4.107.478.579 2.11 1.032 4.897 1.36.903 2.138 2.057 3.208 3.46 3.208 1.402 0 2.778-1.07 4.128-3.209 2.264 1.274 3.783 1.91 4.556 1.91 1.16 0 1.628-.272.59-1.91-1.038-1.637-3.654-3.967-4.451-4.682-.798-.716-1.534-1.246-2.158-1.246-.416 0-4.09.154-11.022.462z" fill="#B4B4B4"/><path d="M204.745 392.57c-4.74-4.497-13.447 6.14-14.881 14.131-1.639 9.134-3.349 21.09-1.119 26.105 1.487 3.343 12.414 6 32.782 7.97v-7.97c-14.847-2.73-22.638-4.648-23.375-5.753-1.105-1.658 11.334-29.987 6.593-34.483z" fill="#2C5DB2"/><path d="M199.736 549.667h4.38c2.511-2.017 4.26-2.626 5.247-1.827 1.48 1.2.465 4.824-1.015 6.657-1.48 1.832-10.692 7.911-12.826 8.744-2.133.832-4.824-.765-4.824-1.858 0-.73.175-3.303.525-7.72 2.866 1.215 5.025 1.493 6.477.834 1.452-.66 2.13-2.27 2.036-4.83zm-19.623-10.5h4.38c2.52-.8 4.273-.8 5.26 0 1.479 1.199.452 2.997-1.027 4.83-1.48 1.832-10.693 7.911-12.826 8.744-2.134.832-4.825-.765-4.825-1.858 0-.73.264-3.679.79-8.849 1.952.33 3.764.494 5.436.494 1.671 0 2.61-1.12 2.812-3.361z" fill="#356ED0"/><path d="M200.47 366.1c.406-1.331-1.434-1.573-1.56-2.502-.378-2.798.519-5.264.415-6.217-.209-1.903-1.376-.848-1.376-3.506 0-.955 3.583 1.3 2.864-2.35-.72-3.651-7.924-4.816-16.453-1.814-13.617 4.793-8 19.715-5.191 24.802 1.873 3.391 4.484 5.3 7.833 5.73 2.356 1.456 4.87.688 7.54-2.304 4.007-4.489 5.523-10.508 5.928-11.839z" fill="#2C5DB2"/></g></svg>