<svg xmlns="http://www.w3.org/2000/svg" viewBox="0 0 100 22.18"><defs><style>.c82d20ee-1edb-4855-9542-fe09f08b7787{fill:#df121d}</style></defs><g id="2e570efd-9f54-42dc-8cf6-94d256ca9f79" data-name="Layer 2"><g id="a27c364d-6be4-4dcf-95d0-9921edb21a89" data-name="Layer 1"><path class="c82d20ee-1edb-4855-9542-fe09f08b7787" d="M48.4 6.42c5.39 0 7.72 3.65 7.72 7.81s-2.42 8-7.81 8c-4.24 0-7.6-2.62-7.6-7.84 0-3.64 1.82-7.97 7.69-7.97zm.06 12.73c1.91 0 3.21-1.15 3.21-5.1 0-2-.38-4.71-3.27-4.71-3.18 0-3.21 3.68-3.21 5-.01 3.37 1.11 4.81 3.26 4.81zm8.39-12.43h4v2.85c.56-1.27 1.53-3.06 5.07-2.89v3.92c-4.42-.41-4.68 1.86-4.68 3.71v7.34h-4.4zm42.36 2.15a5.54 5.54 0 0 0-9.35.38c-.29-.71-1.26-2.8-4.68-2.8a5.08 5.08 0 0 0-4.57 2.2v-2h-4.44v7.59c0 2.53 0 4.63-2.81 4.63-2.33 0-2.33-2-2.33-3.27V6.7h-4.44V16c0 .74 0 2.8 1 4A5.71 5.71 0 0 0 72 22a4.88 4.88 0 0 0 4.35-2.28v1.9h4.44V12.9c0-1 0-3.36 2.72-3.36C86 9.55 86 11.67 86 12.82v8.84h4.44V14.2c0-2.21 0-4.65 2.66-4.65 2.27 0 2.48 1.77 2.48 3.36v8.75H100v-8.4a8.61 8.61 0 0 0-.79-4.39z"/><path class="c82d20ee-1edb-4855-9542-fe09f08b7787" d="M43.83 6.7H39V5c0-.77.06-1.94 2.3-1.94a6.53 6.53 0 0 1 1 .09v-3A18.5 18.5 0 0 0 39.94 0c-4.24 0-5.12 2.12-5.12 4.74v2h-4.18a6.13 6.13 0 0 1 2.5 3.26h1.67v11.65H39V10h2a8.86 8.86 0 0 1 .82-1.41 7.47 7.47 0 0 1 2.01-1.89z"/><path class="18ccd774-5544-47b1-bdbc-b69a6a516250" d="M5.14 2.5H2.8v4.2H0V9h2.8v8.6c0 2.75 1.9 4.15 4.65 4.15a10.51 10.51 0 0 0 1.66-.08v-2.2a8.31 8.31 0 0 1-1.61 0c-1.49-.06-2.36-.68-2.36-2.15V9h3.27V6.7H5.14zm22.04 4.09a5.81 5.81 0 0 0-5 2.64 5.13 5.13 0 0 0-4.66-2.64 5.42 5.42 0 0 0-4.43 2.23V6.7h-2.58v15h2.57v-8.43c0-2.48 1.48-4.28 3.66-4.28s3.35 1.51 3.35 4v8.63h3v-8.43c0-2.51 1.4-4.2 3.62-4.2s3.39 1.49 3.39 4.09v8.58h2.57v-9.08c.04-3.7-2.07-5.99-5.49-5.99z"/></g></g></svg>